<?xml version="1.0" encoding="UTF-8" standalone="no" ?>
<!DOCTYPE svg PUBLIC "-//W3C//DTD SVG 1.1//EN" "http://www.w3.org/Graphics/SVG/1.1/DTD/svg11.dtd">
<svg xmlns="http://www.w3.org/2000/svg" xmlns:xlink="http://www.w3.org/1999/xlink" version="1.1" width="1080" height="1080" viewBox="0 0 1080 1080" xml:space="preserve">
<desc>Created with Fabric.js 5.2.4</desc>
<defs>
</defs>
<g transform="matrix(1 0 0 1 540 540)" id="73e8812d-8e7f-4e8f-8821-f8e18b88f477"  >
<rect style="stroke: none; stroke-width: 1; stroke-dasharray: none; stroke-linecap: butt; stroke-dashoffset: 0; stroke-linejoin: miter; stroke-miterlimit: 4; fill: rgb(255,255,255); fill-rule: nonzero; opacity: 1; visibility: hidden;" vector-effect="non-scaling-stroke"  x="-540" y="-540" rx="0" ry="0" width="1080" height="1080" />
</g>
<g transform="matrix(1 0 0 1 540 540)" id="30f3664c-cd5a-4d0e-ab5f-0d76956a4735"  >
</g>
<g transform="matrix(2.63 0 0 2.63 468.72 540)"  >
<path style="stroke: none; stroke-width: 1; stroke-dasharray: none; stroke-linecap: butt; stroke-dashoffset: 0; stroke-linejoin: miter; stroke-miterlimit: 4; fill: rgb(0,0,0); fill-rule: evenodd; opacity: 1;" vector-effect="non-scaling-stroke"  transform=" translate(-217.68, -273.61)" d="M 259.3 436.9 C 186.70000000000002 427.9 173.4 369.09999999999997 126.30000000000001 373.9 C 128.10000000000002 372.7 132.9 367.79999999999995 132.9 367.79999999999995 C 132.9 367.79999999999995 118.80000000000001 364.29999999999995 99.80000000000001 378.49999999999994 C 98.10000000000001 374.29999999999995 89.50000000000001 349.29999999999995 110.4 324.3999999999999 C 52 292.1 78 244.9 77.1 202.5 C 77.1 184.4 67.89999999999999 157.7 39.89999999999999 159.7 C 100.89999999999999 132.2 158.6 168.7 190.5 193.39999999999998 C 204.1 182.39999999999998 218.8 173.29999999999998 234.5 165.99999999999997 C 234.5 165.99999999999997 245.3 161.49999999999997 247.5 160.49999999999997 C 274.3 107.39999999999998 324.7 101.79999999999997 324.7 101.79999999999997 C 324.7 101.79999999999997 285.59999999999997 128.49999999999997 296.2 165.99999999999997 C 312.4 165.59999999999997 324.09999999999997 171.49999999999997 324.09999999999997 171.49999999999997 C 324.09999999999997 171.49999999999997 310.29999999999995 169.89999999999998 297.4 171.19999999999996 C 297.59999999999997 173.59999999999997 298.29999999999995 181.59999999999997 298.29999999999995 181.59999999999997 C 298.29999999999995 181.59999999999997 308.99999999999994 183.69999999999996 320.09999999999997 193.99999999999997 C 325.09999999999997 190.59999999999997 328.79999999999995 195.99999999999997 328.79999999999995 195.99999999999997 C 342.29999999999995 188.69999999999996 356.99999999999994 224.19999999999996 356.99999999999994 224.19999999999996 C 384.09999999999997 251.59999999999997 366.69999999999993 307.69999999999993 366.69999999999993 307.69999999999993 C 366.0999999999999 311.8999999999999 365.5999999999999 314.19999999999993 367.29999999999995 317.49999999999994 C 372.29999999999995 324.19999999999993 386.59999999999997 319.59999999999997 392.4 337.69999999999993 C 389.59999999999997 336.29999999999995 388.5 335.19999999999993 387.79999999999995 335.3999999999999 C 402.29999999999995 350.5999999999999 393.79999999999995 365.5999999999999 382.29999999999995 369.3999999999999 C 382.29999999999995 369.3999999999999 384.19999999999993 365.99999999999994 384.59999999999997 364.49999999999994 C 378.79999999999995 371.99999999999994 362.7 382.09999999999997 362.7 382.09999999999997 L 364.7 375.49999999999994 C 340.2 405.79999999999995 323.59999999999997 404.8999999999999 304.9 426.3999999999999 C 304.9 426.3 292.2 461 259.3 436.9 z M 245.9 167 C 245.9 167 233.1 172.8 221.70000000000002 181.4 C 231.50000000000003 176.8 243.9 172.1 243.9 172.1 L 245.9 167 z" stroke-linecap="round" />
</g>
<g transform="matrix(2.63 0 0 2.63 474.48 520.94)"  >
<path style="stroke: none; stroke-width: 1; stroke-dasharray: none; stroke-linecap: butt; stroke-dashoffset: 0; stroke-linejoin: miter; stroke-miterlimit: 4; fill: rgb(126,133,133); fill-rule: evenodd; opacity: 1;" vector-effect="non-scaling-stroke"  transform=" translate(-219.88, -266.35)" d="M 214.1 202.6 L 211.5 212.7 C 211.3 216 211.9 220 213.2 224.79999999999998 C 210.89999999999998 220.99999999999997 210 216.89999999999998 210.29999999999998 212.7 C 210.7 208.2 212 204.9 214.1 202.6 M 231.7 190.8 C 226.5 196 222.89999999999998 202.70000000000002 221 211 C 218.7 219.1 219.2 228.1 222.4 238 C 219.1 232.6 217.6 226.7 217.8 220.1 C 218 213.6 219.4 207.5 222.10000000000002 202 C 224.6 196.4 227.9 192.7 231.7 190.8 z M 279.1 172.9 L 279.40000000000003 177.20000000000002 L 269.00000000000006 176.3 L 256.6000000000001 176.9 L 269.30000000000007 174.3 L 279.1 172.9 z M 280.9 205.2 C 286.9 210 290.7 215.29999999999998 292.4 221 C 286.59999999999997 216 270.2 204.8 260.09999999999997 210.3 C 249.99999999999997 215.8 250.89999999999998 232.9 251.49999999999997 234.8 C 245.89999999999998 230 242.49999999999997 224.9 241.09999999999997 219.5 C 239.59999999999997 213.7 239.49999999999997 208.7 240.79999999999995 204.2 C 241.99999999999994 199.6 243.39999999999995 195.2 247.39999999999995 193.5 C 261.5 191 274.8 200 280.9 205.2 z M 208.6 334.1 C 206.1 332.6 203.29999999999998 331.5 200.29999999999998 330.90000000000003 C 203.2 332.3 205.29999999999998 333.50000000000006 206.6 334.70000000000005 L 209.79999999999998 336.70000000000005 C 209.79999999999998 336.70000000000005 196.99999999999997 363.00000000000006 206.29999999999998 371.30000000000007 C 205.7 387.20000000000005 209.79999999999998 382.9000000000001 209.79999999999998 382.9000000000001 C 212.1 392.30000000000007 216.1 401.2000000000001 221.6 409.9000000000001 C 227 418.30000000000007 233 424.80000000000007 239.7 429.2000000000001 C 221.5 421.3000000000001 206.5 412.8000000000001 194.79999999999998 403.6000000000001 C 183.1 394.4000000000001 172.39999999999998 386.6000000000001 162.89999999999998 380.30000000000007 C 153.29999999999998 373.80000000000007 142.59999999999997 371.1000000000001 130.99999999999997 372.20000000000005 L 136.79999999999998 367.90000000000003 L 141.7 368.20000000000005 L 145.1 369.40000000000003 C 131.29999999999998 359.20000000000005 105.6 364.70000000000005 100.8 373.70000000000005 C 100.1 324.40000000000003 116.8 329.90000000000003 150.6 292.80000000000007 C 150.6 292.80000000000007 157.7 283.9000000000001 152.9 278.70000000000005 C 150.20000000000002 276.80000000000007 147.9 276.20000000000005 146 277.20000000000005 C 143.7 277.80000000000007 141.8 279.00000000000006 140.2 281.00000000000006 L 137.6 286.80000000000007 C 136.79999999999998 281.80000000000007 138 271.80000000000007 151.1 271.20000000000005 C 139.29999999999998 263.40000000000003 128.29999999999998 274.70000000000005 128.29999999999998 274.70000000000005 C 128.29999999999998 274.70000000000005 134.99999999999997 261.00000000000006 146.99999999999997 258.80000000000007 L 148.39999999999998 261.4000000000001 C 148.79999999999998 262.2000000000001 149.79999999999998 262.7000000000001 151.59999999999997 262.80000000000007 C 148.89999999999998 258.6000000000001 148.19999999999996 254.50000000000006 149.59999999999997 250.40000000000006 C 151.09999999999997 246.40000000000006 153.19999999999996 243.40000000000006 155.89999999999998 241.50000000000006 C 152.99999999999997 245.10000000000005 151.79999999999998 248.50000000000006 152.09999999999997 251.60000000000005 C 152.09999999999997 254.70000000000005 152.99999999999997 257.1 154.69999999999996 258.80000000000007 C 156.09999999999997 260.20000000000005 157.89999999999995 260.70000000000005 160.19999999999996 260.50000000000006 C 172.39999999999995 257.90000000000003 170.59999999999997 243.20000000000005 170.59999999999997 243.20000000000005 L 172.29999999999995 250.40000000000003 C 172.89999999999995 245.40000000000003 171.99999999999994 239.80000000000004 169.69999999999996 233.70000000000005 C 166.99999999999997 227.40000000000003 163.99999999999997 221.70000000000005 160.79999999999995 216.80000000000004 C 153.69999999999996 206.00000000000003 144.89999999999995 196.60000000000005 134.29999999999995 188.60000000000005 C 125.49999999999996 181.90000000000006 115.99999999999996 176.10000000000005 106.09999999999995 171.30000000000004 C 87.29999999999995 162.90000000000003 67.29999999999995 158.60000000000005 46.19999999999995 158.60000000000005 C 63.299999999999955 154.40000000000006 78.79999999999995 152.90000000000006 92.79999999999995 154.30000000000004 C 106.59999999999995 155.70000000000005 119.39999999999995 158.70000000000005 131.09999999999997 163.50000000000003 C 142.39999999999998 167.90000000000003 152.59999999999997 173.10000000000002 161.89999999999998 179.10000000000002 C 170.7 184.70000000000002 178.89999999999998 189.50000000000003 186.39999999999998 193.70000000000002 C 193.7 197.70000000000002 200.29999999999998 200.10000000000002 206.29999999999998 200.60000000000002 L 199.39999999999998 197.40000000000003 C 196.7 196.40000000000003 194.39999999999998 195.30000000000004 192.49999999999997 193.90000000000003 C 196.29999999999998 190.40000000000003 202.39999999999998 186.10000000000002 210.69999999999996 180.90000000000003 C 218.89999999999995 175.50000000000003 228.09999999999997 170.60000000000002 238.09999999999997 166.20000000000005 C 248.09999999999997 161.60000000000005 257.9 158.60000000000005 267.4 157.30000000000004 C 252.99999999999997 161.50000000000003 240.79999999999998 166.70000000000005 230.89999999999998 172.90000000000003 C 230.89999999999998 172.90000000000003 210.7 186.10000000000002 207.59999999999997 189.90000000000003 C 257.09999999999997 165.50000000000003 298.29999999999995 167.00000000000003 309.19999999999993 168.60000000000002 C 309.19999999999993 168.60000000000002 256.5999999999999 170.60000000000002 243.29999999999993 180.70000000000002 C 243.29999999999993 180.70000000000002 292.19999999999993 173.20000000000002 318.99999999999994 195.70000000000002 C 318.19999999999993 197.4 318.09999999999997 199.4 318.69999999999993 201.50000000000003 C 319.0999999999999 203.40000000000003 319.79999999999995 205.00000000000003 320.69999999999993 206.40000000000003 L 321.29999999999995 198.00000000000003 C 322.09999999999997 195.50000000000003 324.19999999999993 195.20000000000002 327.59999999999997 197.10000000000002 C 325.9 200.60000000000002 325.29999999999995 204.40000000000003 325.9 208.60000000000002 C 326.5 212.8 327.59999999999997 216.8 329.4 220.40000000000003 C 331.09999999999997 223.80000000000004 332.79999999999995 226.20000000000005 334.29999999999995 227.60000000000002 L 334.59999999999997 223.3 L 335.2 216.10000000000002 C 335.4 213.60000000000002 336.09999999999997 212.10000000000002 337.5 211.50000000000003 C 339 210.90000000000003 341.4 211.80000000000004 344.7 214.10000000000002 L 354.2 223.60000000000002 C 354.2 223.60000000000002 381.9 249.00000000000003 363.7 309.70000000000005 C 363.3 311.40000000000003 363.09999999999997 321.80000000000007 372.9 323.50000000000006 C 382.79999999999995 325.20000000000005 387.59999999999997 332.1000000000001 387.59999999999997 332.1000000000001 L 382.99999999999994 331.4000000000001 C 382.99999999999994 331.4000000000001 405.19999999999993 350.7000000000001 385.19999999999993 366.4000000000001 C 385.5999999999999 365.80000000000007 388.29999999999995 361.6000000000001 386.69999999999993 359.80000000000007 C 376.79999999999995 370.50000000000006 366.0999999999999 377.70000000000005 366.0999999999999 377.70000000000005 C 366.0999999999999 377.70000000000005 369.8999999999999 370.00000000000006 370.8999999999999 364.40000000000003 C 352.2999999999999 388.90000000000003 338.0999999999999 395.8 338.0999999999999 395.8 C 342.69999999999993 388.5 346.2999999999999 380.90000000000003 348.7999999999999 373 C 348.7999999999999 373 365.1999999999999 364.1 370.6999999999999 347.7 L 371.59999999999985 346 C 372.59999999999985 342 372.99999999999983 338.1 372.39999999999986 335.6 L 372.09999999999985 334.20000000000005 C 371.49999999999983 331.50000000000006 370.79999999999984 328.30000000000007 367.1999999999999 325.80000000000007 C 361.9999999999999 322.00000000000006 353.9999999999999 323.50000000000006 353.9999999999999 323.50000000000006 C 359.89999999999986 305.80000000000007 362.6999999999999 291.1000000000001 362.2999999999999 279.40000000000003 C 361.8999999999999 267.3 360.0999999999999 258.1 356.7999999999999 251.80000000000004 C 353.4999999999999 245.60000000000005 350.6999999999999 242.30000000000004 348.3999999999999 241.70000000000005 C 344.99999999999994 241.10000000000005 342.2999999999999 241.90000000000003 340.2999999999999 243.70000000000005 C 338.1999999999999 245.40000000000003 336.7999999999999 248.10000000000005 336.2999999999999 251.80000000000004 C 334.9999999999999 247.60000000000005 333.2999999999999 244.90000000000003 331.3999999999999 243.70000000000005 C 329.2999999999999 242.50000000000006 327.5999999999999 243.10000000000005 326.19999999999993 245.40000000000003 L 322.19999999999993 232.40000000000003 L 318.19999999999993 226.10000000000002 C 314.8999999999999 222.3 311.79999999999995 220.8 308.69999999999993 221.8 C 306.3999999999999 222.60000000000002 304.99999999999994 224.5 304.69999999999993 227.60000000000002 L 304.69999999999993 231.10000000000002 L 305.29999999999995 238.50000000000003 C 305.9 242.30000000000004 306.69999999999993 246.10000000000002 307.9 249.70000000000002 C 304.29999999999995 244.70000000000002 301.29999999999995 242.60000000000002 299 243.10000000000002 C 296.5 243.70000000000002 295.2 246.3 295 250.90000000000003 L 289.2 243.10000000000002 L 280.59999999999997 235.60000000000002 C 277.29999999999995 233.70000000000002 274.29999999999995 233.10000000000002 271.4 233.90000000000003 C 267.2 235.10000000000002 264 239.70000000000005 261.9 247.70000000000005 C 260 255.60000000000005 260 266.1 261.9 279.30000000000007 C 264 292.6000000000001 269.2 307.6000000000001 277.5 324.50000000000006 C 277.5 324.50000000000006 272 323.6000000000001 268.9 323.6000000000001 C 267.2 313.30000000000007 261.7 308.1000000000001 261.7 308.1000000000001 C 261.7 308.1000000000001 274.3 328.4000000000001 260.5 341.80000000000007 L 258.8 343.20000000000005 C 252.5 347.40000000000003 246 349.1 239.5 348.40000000000003 C 233.1 347.70000000000005 226.4 345.00000000000006 219.3 340.40000000000003 L 208.6 334.1 z M 320 103.5 L 313.7 109.6 L 301.3 123.1 C 296.3 128.7 291.90000000000003 135 288 142.1 C 284 149.6 281.4 157.7 280.2 166.29999999999998 C 280.2 166.29999999999998 266.4 166.99999999999997 246 172.1 L 248.6 166.1 L 263 160.6 L 280 155.4 C 273.3 154.6 264.2 155.9 252.6 159.1 C 260.5 145.7 269.3 134.9 279.1 126.8 C 288.5 119.1 297.20000000000005 113.5 305 109.9 L 320 103.5 z" stroke-linecap="round" />
</g>
<g transform="matrix(2.63 0 0 2.63 367.42 419.32)"  >
<path style="stroke: none; stroke-width: 1; stroke-dasharray: none; stroke-linecap: butt; stroke-dashoffset: 0; stroke-linejoin: miter; stroke-miterlimit: 4; fill: rgb(251,169,154); fill-rule: evenodd; opacity: 1;" vector-effect="non-scaling-stroke"  transform=" translate(-179.1, -227.65)" d="M 95.8 168.9 C 103.1 171.8 110.3 175.3 117.6 179.6 L 137.5 193.7 C 149.6 204.1 159 216.2 165.7 230 C 167.2 233.8 168.2 238.1 168.6 242.7 C 169.2 249.89999999999998 166.5 258.8 158.79999999999998 257.4 C 149.39999999999998 255.39999999999998 159.49999999999997 236.7 159.49999999999997 236.7 C 159.49999999999997 236.7 143.79999999999998 244.79999999999998 146.99999999999997 257.4 C 146.99999999999997 257.4 125.19999999999997 261 125.39999999999998 280.4 L 133.49999999999997 272.9 C 136.59999999999997 271 140.09999999999997 270.2 144.09999999999997 270.59999999999997 C 140.49999999999997 271.59999999999997 137.79999999999995 274.2 136.09999999999997 278.7 C 134.49999999999997 283.09999999999997 135.49999999999997 287.4 138.99999999999997 291.59999999999997 C 138.59999999999997 289.7 144.79999999999998 274.49999999999994 150.79999999999998 279.79999999999995 C 152.89999999999998 280.99999999999994 152.1 284.29999999999995 149.39999999999998 289.9 C 146.7 294.79999999999995 141.29999999999998 300.2 133.29999999999998 305.7 L 112.89999999999998 322.4 L 99.29999999999998 312.9 C 91.39999999999998 305.2 85.69999999999999 296.4 82.09999999999998 286.4 C 78.09999999999998 276.2 76.09999999999998 265.4 76.29999999999998 253.79999999999998 C 77.09999999999998 237.7 78.49999999999999 221.89999999999998 80.59999999999998 206.29999999999998 L 79.99999999999999 195.29999999999998 L 77 184.1 L 71.8 172 C 69.5 167.8 66.39999999999999 164.2 62.599999999999994 161.3 L 61.699999999999996 160.70000000000002 C 73.3 162.2 84.6 164.8 95.8 168.9 M 295 180.4 L 282.6 177.5 L 282.6 172.6 L 295 171.5 L 295 180.4 z M 292.7 147.3 C 291.9 152.3 292.3 158.10000000000002 293.5 165.60000000000002 L 282.8 166.10000000000002 C 282.8 162.3 283.90000000000003 158.40000000000003 285.8 154.00000000000003 C 287.3 149.40000000000003 289.2 145.20000000000002 291.3 141.30000000000004 L 296.5 132.90000000000003 C 294.5 137.5 293.3 142.3 292.7 147.3 z" stroke-linecap="round" />
</g>
<g transform="matrix(2.63 0 0 2.63 715.67 565.82)"  >
<path style="stroke: none; stroke-width: 1; stroke-dasharray: none; stroke-linecap: butt; stroke-dashoffset: 0; stroke-linejoin: miter; stroke-miterlimit: 4; fill: rgb(255,240,121); fill-rule: evenodd; opacity: 1;" vector-effect="non-scaling-stroke"  transform=" translate(-311.73, -283.45)" d="M 346.3 244.3 C 348.8 244.70000000000002 351.5 247.5 354.40000000000003 252.70000000000002 C 356.90000000000003 257.90000000000003 358.70000000000005 264.5 359.90000000000003 272.6 C 361.1 280.90000000000003 360.6 289.5 358.50000000000006 298.5 C 357.70000000000005 293.3 355.70000000000005 290.5 352.40000000000003 290.1 C 349.1 290.5 346.40000000000003 294.1 344.3 301.1 C 341.8 307.8 341.2 316.3 342.6 326.40000000000003 L 334.8 329.3 C 337.7 313 338.7 296.40000000000003 337.7 279.5 C 336.3 268.6 336.5 260.1 338.3 253.9 C 339.5 247.3 342.2 244.2 346.3 244.3 M 286.3 244.3 C 291.7 250.5 296.5 258.8 300.7 269.40000000000003 C 304.7 279.8 306.7 290.8 306.5 302.50000000000006 C 304.6 296.50000000000006 302.6 292.90000000000003 300.5 291.50000000000006 C 298.6 290.00000000000006 297.1 289.40000000000003 296.2 289.80000000000007 C 293.3 290.6000000000001 291.2 293.00000000000006 289.9 297.30000000000007 C 288.4 301.50000000000006 287.9 306.6000000000001 288.5 312.6000000000001 C 288.9 318.4000000000001 290.1 324.00000000000006 292.2 329.6000000000001 L 287.3 330.50000000000006 C 287.3 330.50000000000006 283.1 327.1000000000001 278.1 325.30000000000007 C 273.40000000000003 314.50000000000006 267 295.30000000000007 265.1 282.4000000000001 C 262.8 269.30000000000007 262.3 258.9000000000001 263.70000000000005 251.00000000000009 C 265.00000000000006 242.70000000000007 267.70000000000005 237.9000000000001 271.80000000000007 236.60000000000008 C 275.9 235.6 280.8 238.2 286.3 244.3 z" stroke-linecap="round" />
</g>
<g transform="matrix(2.63 0 0 2.63 729.6 553.34)"  >
<path style="stroke: none; stroke-width: 1; stroke-dasharray: none; stroke-linecap: butt; stroke-dashoffset: 0; stroke-linejoin: miter; stroke-miterlimit: 4; fill: rgb(196,196,196); fill-rule: evenodd; opacity: 1;" vector-effect="non-scaling-stroke"  transform=" translate(-317.04, -278.68)" d="M 327 333.9 C 318.8 328.79999999999995 303.4 328.4 303.4 328.4 L 308.59999999999997 309.09999999999997 C 309.4 299.7 308.59999999999997 290.29999999999995 306.59999999999997 280.9 C 304.49999999999994 271.29999999999995 301.4 262.5 297.4 254.39999999999998 C 296.79999999999995 246.89999999999998 298.29999999999995 244.2 301.7 246.29999999999998 C 305 248.2 308.59999999999997 254.1 312.7 263.9 L 310.09999999999997 250.89999999999998 C 308.4 244.7 307.29999999999995 238.99999999999997 306.9 233.59999999999997 L 306.9 231.29999999999995 C 306.9 227.09999999999997 308.09999999999997 224.49999999999994 310.59999999999997 223.49999999999994 C 313.7 223.09999999999994 316.9 225.89999999999995 320.09999999999997 231.89999999999995 L 320.4 232.49999999999994 C 323.5 238.29999999999995 325.59999999999997 246.09999999999994 326.7 256.09999999999997 L 327 250.59999999999997 C 326.8 247.69999999999996 327.7 245.89999999999998 329.6 245.09999999999997 C 331.1 245.09999999999997 332.40000000000003 246.29999999999995 333.3 248.79999999999995 L 335.3 253.69999999999996 L 336.2 258.59999999999997 L 335.59999999999997 263.2 L 336.2 278.2 L 336.8 292.9 C 336.6 305.4 335.40000000000003 317.7 333.3 329.7 C 331 330.7 329.40000000000003 331.5 328.40000000000003 332.3 L 327 333.9" stroke-linecap="round" />
</g>
<g transform="matrix(2.63 0 0 2.63 746.54 637.78)"  >
<path style="stroke: none; stroke-width: 1; stroke-dasharray: none; stroke-linecap: butt; stroke-dashoffset: 0; stroke-linejoin: miter; stroke-miterlimit: 4; fill: rgb(89,178,36); fill-rule: evenodd; opacity: 1;" vector-effect="non-scaling-stroke"  transform=" translate(-323.49, -310.85)" d="M 298.2 301.1 C 296.09999999999997 301.90000000000003 294.5 305.20000000000005 293.59999999999997 311.20000000000005 C 292.49999999999994 316.80000000000007 293.7 322.6 297.09999999999997 328.80000000000007 L 293.4 329.4000000000001 C 290.7 323.5000000000001 289.4 317.7000000000001 289.4 312.1000000000001 C 289.2 306.50000000000006 290 301.9000000000001 291.7 298.30000000000007 C 293 294.70000000000005 294.7 292.6000000000001 296.59999999999997 292.30000000000007 C 299.49999999999994 292.30000000000007 301.79999999999995 294.4000000000001 303.49999999999994 298.6000000000001 C 304.99999999999994 302.80000000000007 305.79999999999995 306.9000000000001 305.79999999999995 311.00000000000006 L 303.19999999999993 303.50000000000006 C 301.7 301.4 300.1 300.6 298.2 301.1 M 357.2 299 C 358 302.5 357.59999999999997 306.6 356.09999999999997 311.4 C 355.9 305.2 354.4 302.2 351.49999999999994 302.2 C 350.19999999999993 302 348.69999999999993 303.9 347.19999999999993 308 C 345.49999999999994 312.2 345.0999999999999 318.1 345.99999999999994 325.6 L 343.99999999999994 326.20000000000005 C 343.3999999999999 315.1 344.19999999999993 306.70000000000005 346.29999999999995 300.90000000000003 C 348.4 295.1 350.69999999999993 292.50000000000006 353.19999999999993 292.8 C 355.1 293.2 356.4 295.4 357.2 299 z" stroke-linecap="round" />
</g>
<g transform="matrix(2.63 0 0 2.63 651.08 827.61)"  >
<path style="stroke: none; stroke-width: 1; stroke-dasharray: none; stroke-linecap: butt; stroke-dashoffset: 0; stroke-linejoin: miter; stroke-miterlimit: 4; fill: rgb(255,255,255); fill-rule: evenodd; opacity: 1;" vector-effect="non-scaling-stroke"  transform=" translate(-287.13, -383.15)" d="M 245.8 375.6 C 246.8 384 248.70000000000002 392 251.60000000000002 399.5 C 254.3 406.8 258.8 413.1 265.1 418.5 C 268.70000000000005 420.8 272.70000000000005 422.3 276.90000000000003 422.8 C 281.1 423.40000000000003 284.50000000000006 423.2 289.00000000000006 420.2 C 297.6000000000001 414.3 301.6000000000001 386.7 311.80000000000007 383.9 C 316.00000000000006 382.9 319.1000000000001 381 322.20000000000005 378.7 L 330.6 371.2 C 335.8 379.2 347.5 373.8 347.5 373.8 L 340 390.2 C 337.1 395.59999999999997 333.1 400 327.9 403.5 L 316.4 412.1 L 306 421.90000000000003 C 307.5 418.3 308 414.6 307.4 411.00000000000006 C 307.4 411.00000000000006 303.2 438.00000000000006 283 440.30000000000007 C 263.7 442.1000000000001 247.4 423.4000000000001 246.4 423.00000000000006 L 255.9 433.90000000000003 C 250.70000000000002 432.90000000000003 245 430.00000000000006 238.6 425.00000000000006 C 232.1 419.80000000000007 226.1 413.00000000000006 220.7 404.6000000000001 C 215.5 396.1000000000001 211.79999999999998 386.4000000000001 209.5 375.50000000000006 L 208.3 381.50000000000006 C 208.3 381.50000000000006 206.60000000000002 368.6000000000001 208 360.50000000000006 C 205.9 363.70000000000005 205.5 368.30000000000007 205.5 368.30000000000007 C 205.5 368.30000000000007 201.5 356.6000000000001 211.2 337.50000000000006 C 212.89999999999998 338.90000000000003 223.39999999999998 348.6000000000001 239.5 351.90000000000003 C 242.2 352.6 244.1 358.3 244.7 362.6 L 245.8 375.6 z M 337.3 335.6 C 342.6 334.8 348.1 336 348.5 337.90000000000003 C 349 339.8 347.3 342.1 339.6 343.1 C 331.8 344.1 329.6 342 329.20000000000005 340.8 C 329.1 339.4 332.1 336.5 337.3 335.6 z M 327 333.9 C 327 333.9 359.5 318.79999999999995 368.2 331.59999999999997 C 376.2 346.7 347.59999999999997 382.9 332.59999999999997 369.59999999999997 L 334.49999999999994 366.4 C 334.49999999999994 366.4 315.8999999999999 382 303.3999999999999 381.09999999999997 C 296.19999999999993 380.29999999999995 291.49999999999994 376.7 286.69999999999993 371.9 L 273.19999999999993 357.5 L 266.5999999999999 351.5 C 264.4999999999999 349.4 261.9999999999999 347.8 259.0999999999999 346.6 C 259.0999999999999 346.6 268.4999999999999 340.6 268.8999999999999 326.1 C 273.2999999999999 324.90000000000003 284.0999999999999 328.70000000000005 286.7999999999999 330.40000000000003 L 280 333 C 280 333 309 327.4 325.8 336.7 L 322.6 338.4 L 321.70000000000005 339.29999999999995 C 320.20000000000005 340.49999999999994 319.30000000000007 342.09999999999997 319.1 344.19999999999993 C 319.1 346.49999999999994 320.3 347.99999999999994 322.8 348.79999999999995 L 330.90000000000003 351.69999999999993 C 333.8 352.49999999999994 337.20000000000005 353.99999999999994 338.40000000000003 356.8999999999999 C 342.70000000000005 354.7999999999999 349.6 347.69999999999993 349.6 347.69999999999993 C 353.20000000000005 344.5999999999999 355.1 341.8999999999999 355.1 339.5999999999999 C 354.5 337.2999999999999 352 335.5999999999999 347.6 334.3999999999999 C 347.6 334.3999999999999 339.20000000000005 331.3999999999999 329.5 335.5999999999999 L 327 333.9 z" stroke-linecap="round" />
</g>
<g transform="matrix(2.63 0 0 2.63 605.97 884.05)"  >
<path style="stroke: none; stroke-width: 1; stroke-dasharray: none; stroke-linecap: butt; stroke-dashoffset: 0; stroke-linejoin: miter; stroke-miterlimit: 4; fill: rgb(251,25,39); fill-rule: evenodd; opacity: 1;" vector-effect="non-scaling-stroke"  transform=" translate(-269.95, -404.64)" d="M 260.5 391.4 C 263.8 392.9 267.2 396.59999999999997 270.9 402.29999999999995 L 267.7 395.4 C 270.2 395.4 285.4 399 288.4 417.5 C 286.29999999999995 420 283.09999999999997 421.1 278.9 420.7 C 274.29999999999995 420.3 269.9 418.4 265.59999999999997 415 C 261.79999999999995 411.5 258.7 407.2 256.4 402 C 253.7 396.8 252.09999999999997 392.3 251.49999999999997 388.5 L 260.5 391.4" stroke-linecap="round" />
</g>
<g transform="matrix(2.63 0 0 2.63 946.41 679.93)"  >
<path style="stroke: none; stroke-width: 1; stroke-dasharray: none; stroke-linecap: butt; stroke-dashoffset: 0; stroke-linejoin: miter; stroke-miterlimit: 4; fill: rgb(0,0,0); fill-rule: nonzero; opacity: 1;" vector-effect="non-scaling-stroke"  transform=" translate(-399.61, -326.9)" d="M 369.8 335 C 369.6 334.5 369.8 334 370.3 333.8 L 370.3 333.8 C 403.8 319.8 429.5 318.1 429.5 318.1 L 429.5 318.1 C 429.6 318.6 404.9 321.1 371.1 335.6 L 371.1 335.6 C 371 335.70000000000005 370.90000000000003 335.70000000000005 370.70000000000005 335.70000000000005 L 370.70000000000005 335.70000000000005 C 370.3 335.5 370 335.3 369.8 335 L 369.8 335 z" stroke-linecap="round" />
</g>
<g transform="matrix(2.63 0 0 2.63 940.22 740.94)"  >
<path style="stroke: none; stroke-width: 1; stroke-dasharray: none; stroke-linecap: butt; stroke-dashoffset: 0; stroke-linejoin: miter; stroke-miterlimit: 4; fill: rgb(0,0,0); fill-rule: nonzero; opacity: 1;" vector-effect="non-scaling-stroke"  transform=" translate(-397.25, -350.13)" d="M 380.3 347 C 374.5 347 369.6 347.4 369.5 347.4 L 370.6 345.4 C 402.8 343.4 425 355.09999999999997 425 355.09999999999997 C 425 355.09999999999997 403 346.6 380.3 347 L 380.3 347 z" stroke-linecap="round" />
</g>
<g transform="matrix(2.63 0 0 2.63 534.73 669.7)"  >
<path style="stroke: none; stroke-width: 1; stroke-dasharray: none; stroke-linecap: butt; stroke-dashoffset: 0; stroke-linejoin: miter; stroke-miterlimit: 4; fill: rgb(0,0,0); fill-rule: nonzero; opacity: 1;" vector-effect="non-scaling-stroke"  transform=" translate(-242.82, -323)" d="M 286.9 340.3 C 241.79999999999998 312 197.2 305.6 197.2 305.6 L 197.2 305.6 C 197.2 305.1 239.5 308.3 288 338.70000000000005 L 288 338.70000000000005 L 288 338.70000000000005 C 288.4 339.00000000000006 288.6 339.6 288.3 340.00000000000006 L 288.3 340.00000000000006 C 288.1 340.30000000000007 287.8 340.40000000000003 287.5 340.40000000000003 L 287.5 340.40000000000003 C 287.3 340.5 287.1 340.4 286.9 340.3 L 286.9 340.3 z" stroke-linecap="round" />
</g>
<g transform="matrix(2.63 0 0 2.63 479.9 726.67)"  >
<path style="stroke: none; stroke-width: 1; stroke-dasharray: none; stroke-linecap: butt; stroke-dashoffset: 0; stroke-linejoin: miter; stroke-miterlimit: 4; fill: rgb(0,0,0); fill-rule: nonzero; opacity: 1;" vector-effect="non-scaling-stroke"  transform=" translate(-221.94, -344.7)" d="M 285.9 350.9 C 268 342.59999999999997 239.59999999999997 340.29999999999995 213.99999999999997 340.29999999999995 L 213.99999999999997 340.29999999999995 C 198.89999999999998 340.29999999999995 156.59999999999997 342.59999999999997 156.59999999999997 342.59999999999997 L 156.59999999999997 342.59999999999997 C 156.49999999999997 342.09999999999997 183.59999999999997 338.4 213.99999999999997 338.4 L 213.99999999999997 338.4 C 239.69999999999996 338.4 268.29999999999995 340.59999999999997 286.7 349.09999999999997 L 286.7 349.09999999999997 C 287.2 349.29999999999995 287.4 349.9 287.2 350.4 L 287.2 350.4 C 287 350.7 286.7 351 286.3 351 L 286.3 351 C 286.2 351 286.1 350.9 285.9 350.9 L 285.9 350.9 z" stroke-linecap="round" />
</g>
</svg>